<svg width="48" height="48" viewBox="0 0 48 48" fill="none" xmlns="http://www.w3.org/2000/svg">
<path d="M27.7613 33.2944C28.4946 33.5573 29.2996 33.5375 30.0191 33.2389C30.7386 32.9404 31.3211 32.3845 31.6529 31.6796C31.7776 31.4103 31.9742 31.1806 32.2212 31.016C32.4681 30.8513 32.7558 30.7581 33.0524 30.7466C33.8334 30.7175 34.5744 30.3938 35.1264 29.8406C35.6784 29.2874 36.0004 28.5456 36.0278 27.7646C36.0403 27.4687 36.1342 27.182 36.2992 26.9361C36.4643 26.6902 36.694 26.4947 36.963 26.371C37.6681 26.0388 38.2239 25.4555 38.5217 24.7353C38.8195 24.015 38.838 23.2096 38.5734 22.4765C38.4691 22.1978 38.4451 21.8955 38.504 21.6038C38.5629 21.3122 38.7024 21.0429 38.9066 20.8265C39.4374 20.2531 39.7315 19.5001 39.7301 18.7188C39.7286 17.9374 39.4315 17.1856 38.8986 16.6142C38.6983 16.3961 38.5622 16.127 38.5052 15.8365C38.4482 15.546 38.4726 15.2454 38.5756 14.9679C38.8389 14.2345 38.8192 13.4294 38.5205 12.7097C38.2217 11.99 37.6654 11.4077 36.9601 11.0763C36.6905 10.9519 36.4606 10.7552 36.2961 10.508C36.1315 10.2608 36.0387 9.97287 36.0279 9.67611C35.9979 8.89537 35.6737 8.15485 35.1205 7.60312C34.5673 7.05139 33.8259 6.72927 33.045 6.70137C32.7491 6.68938 32.4623 6.59564 32.2165 6.43057C31.9706 6.26549 31.7753 6.03552 31.6521 5.76618C31.3197 5.06137 30.7364 4.50582 30.0162 4.20804C29.2961 3.91025 28.4908 3.89163 27.7576 4.1558C27.4786 4.25749 27.177 4.28026 26.8859 4.2216C26.5948 4.16294 26.3255 4.02512 26.1077 3.82332C25.5342 3.29287 24.7814 2.99878 24.0002 3C23.219 3.00123 22.4672 3.29767 21.8953 3.82991C21.6775 4.03042 21.4084 4.16683 21.1179 4.22408C20.8274 4.28133 20.5267 4.25719 20.2491 4.15433C19.5157 3.89183 18.7109 3.91178 17.9915 4.2103C17.2721 4.50883 16.6896 5.06453 16.3575 5.76912C16.2328 6.03856 16.036 6.26826 15.7889 6.43279C15.5418 6.59733 15.254 6.69028 14.9573 6.70137C14.1766 6.7311 13.436 7.05504 12.8843 7.60816C12.3325 8.16127 12.0104 8.90263 11.9826 9.6834C11.9699 9.98313 11.8739 10.2734 11.7051 10.5214C11.5364 10.7695 11.3017 10.9654 11.0276 11.0873C10.3283 11.4227 9.77844 12.0059 9.48456 12.7236C9.19069 13.4414 9.17374 14.2427 9.43699 14.9723C9.53913 15.2513 9.56206 15.5531 9.50325 15.8443C9.44444 16.1355 9.30618 16.4047 9.10378 16.6222C8.57311 17.1955 8.27892 17.9483 8.28028 18.7295C8.28164 19.5106 8.57844 20.2624 9.1111 20.8338C9.31165 21.0518 9.44803 21.321 9.50515 21.6117C9.56228 21.9024 9.53793 22.2031 9.43479 22.4808C9.16279 23.2136 9.17817 24.0222 9.47785 24.7441C9.77753 25.466 10.3393 26.0477 11.0503 26.3724C11.3198 26.4968 11.5496 26.6934 11.7142 26.9404C11.8788 27.1875 11.9716 27.4753 11.9825 27.7719C12.0124 28.5526 12.3364 29.2931 12.8895 29.8448C13.4425 30.3965 14.1838 30.7187 14.9645 30.7467C15.2605 30.7589 15.5472 30.8528 15.7932 31.0178C16.0391 31.1828 16.2346 31.4126 16.3582 31.6818C16.6905 32.3869 17.2739 32.9428 17.9942 33.2407C18.7145 33.5387 19.5201 33.5573 20.2534 33.293C20.5321 33.1899 20.834 33.1664 21.1252 33.2252C21.4165 33.2839 21.6856 33.4225 21.9026 33.6254C22.4762 34.1558 23.229 34.4498 24.0101 34.4486C24.7913 34.4474 25.5432 34.151 26.115 33.6188C26.333 33.4185 26.6021 33.2823 26.8925 33.225C27.183 33.1678 27.4836 33.1918 27.7613 33.2944ZM25.0942 32.5196C24.7962 32.7947 24.4052 32.9468 23.9997 32.9455C23.5942 32.9441 23.2042 32.7894 22.9082 32.5123C22.3363 31.9862 21.5878 31.694 20.8108 31.6936C20.443 31.6938 20.0781 31.7587 19.7328 31.8854C19.3528 32.0226 18.9353 32.0126 18.5623 31.8574C18.1893 31.7022 17.8879 31.4131 17.7174 31.0469C17.4774 30.5277 17.0986 30.0849 16.6227 29.7675C16.1469 29.4501 15.5925 29.2704 15.021 29.2483C14.6163 29.2323 14.2326 29.064 13.9469 28.777C13.6611 28.49 13.4944 28.1056 13.4802 27.7009C13.4571 27.1299 13.2767 26.5764 12.9588 26.1016C12.6408 25.6268 12.1978 25.2491 11.6786 25.0103C11.3102 24.8415 11.0194 24.5394 10.8647 24.1648C10.7101 23.7902 10.7031 23.3709 10.8453 22.9913C11.0425 22.4544 11.0875 21.8735 10.9753 21.3126C10.8632 20.7517 10.5982 20.2328 10.2096 19.813C9.93428 19.5154 9.7819 19.1245 9.78312 18.7191C9.78434 18.3137 9.93908 17.9237 10.2162 17.6278C10.603 17.2077 10.8663 16.689 10.977 16.1288C11.0878 15.5686 11.0417 14.9888 10.8438 14.4531C10.7061 14.0693 10.718 13.6477 10.877 13.2723C11.0361 12.8968 11.3306 12.5949 11.7021 12.4267C12.2162 12.1847 12.6541 11.8062 12.9679 11.3324C13.2817 10.8586 13.4594 10.3077 13.4816 9.73983C13.4973 9.33501 13.6657 8.95113 13.9529 8.6654C14.2401 8.37968 14.6249 8.21331 15.0298 8.19975C15.6005 8.17597 16.1535 7.99521 16.6281 7.67737C17.1027 7.35952 17.4804 6.91691 17.7196 6.39825C17.888 6.02948 18.1901 5.73835 18.5649 5.58367C18.9396 5.42898 19.3591 5.42226 19.7386 5.56485C20.2754 5.76187 20.8562 5.80677 21.4169 5.6946C21.9776 5.58244 22.4965 5.31756 22.9162 4.92919C23.2137 4.65371 23.6046 4.50122 24.0101 4.50244C24.4156 4.50366 24.8056 4.65851 25.1014 4.93578C25.5221 5.32215 26.041 5.58512 26.6013 5.69584C27.1616 5.80656 27.7416 5.76073 28.2776 5.56339C28.6575 5.42696 29.0746 5.43722 29.4474 5.59217C29.8202 5.74712 30.1217 6.03559 30.2929 6.40114C30.5327 6.92058 30.9115 7.36358 31.3873 7.68113C31.8632 7.99869 32.4177 8.17843 32.9894 8.20047C33.394 8.21644 33.7777 8.3848 34.0635 8.67178C34.3492 8.95876 34.5159 9.34315 34.5302 9.74788C34.5532 10.3189 34.7337 10.8723 35.0516 11.3472C35.3695 11.822 35.8125 12.1997 36.3317 12.4385C36.6971 12.6105 36.9852 12.9128 37.1393 13.2862C37.2935 13.6595 37.3027 14.077 37.1651 14.4568C36.9676 14.9937 36.9225 15.5749 37.0347 16.1359C37.1469 16.6969 37.412 17.216 37.8007 17.6358C38.0766 17.933 38.2294 18.324 38.228 18.7295C38.2266 19.1351 38.0713 19.525 37.7934 19.8203C37.4069 20.2407 37.1439 20.7596 37.0333 21.3198C36.9227 21.8801 36.9688 22.46 37.1665 22.9957C37.303 23.3759 37.2927 23.7934 37.1374 24.1663C36.9822 24.5393 36.6933 24.8408 36.3273 25.0118C35.8083 25.2523 35.3658 25.6314 35.0485 26.1073C34.7311 26.5832 34.5513 27.1374 34.5287 27.709C34.513 28.1138 34.3446 28.4977 34.0574 28.7834C33.7702 29.0691 33.3854 29.2355 32.9805 29.2491C32.4099 29.2728 31.8568 29.4536 31.3822 29.7714C30.9076 30.0893 30.5299 30.5319 30.2907 31.0506C30.1192 31.4165 29.8169 31.7049 29.4434 31.8591C29.0699 32.0134 28.6522 32.0222 28.2725 31.884C27.7355 31.687 27.1546 31.6422 26.5938 31.7543C26.033 31.8665 25.514 32.1313 25.0942 32.5196Z" fill="#414651"/>
<path d="M19.7341 35.2637C18.681 37.5696 17.8995 39.9901 17.4053 42.4764L15.4947 40.0853C15.3843 39.9465 15.2282 39.8514 15.0542 39.817C14.8802 39.7827 14.6997 39.8113 14.5448 39.8978L9.68803 42.5943C10.9971 39.3893 12.9088 36.4653 15.3196 33.9807C15.4578 33.8409 15.5356 33.6525 15.5362 33.4559C15.5369 33.2594 15.4604 33.0704 15.3232 32.9297C15.1859 32.789 14.9989 32.7078 14.8024 32.7035C14.6059 32.6993 14.4156 32.7724 14.2724 32.907C11.2488 36.0448 8.96008 39.815 7.57166 43.9454C7.51193 44.091 7.49917 44.2517 7.53514 44.4049C7.57111 44.5582 7.65402 44.6964 7.7723 44.8002C7.89058 44.9041 8.03834 44.9685 8.19495 44.9843C8.35156 45.0002 8.50922 44.9667 8.64592 44.8887L14.7184 41.5163L17.2772 44.7181C17.3692 44.8334 17.4932 44.9189 17.6337 44.9641C17.7742 45.0092 17.9249 45.0119 18.0668 44.9718C18.2088 44.9317 18.3358 44.8506 18.4319 44.7386C18.528 44.6266 18.5889 44.4888 18.6071 44.3424C19.0413 41.4268 19.8775 38.5854 21.0918 35.8994C21.1716 35.72 21.1779 35.5165 21.1092 35.3326C21.0406 35.1486 20.9025 34.999 20.7247 34.9157C20.5469 34.8325 20.3436 34.8223 20.1583 34.8873C19.9731 34.9524 19.8208 35.0875 19.7341 35.2637Z" fill="#414651"/>
<path d="M40.4534 43.9916C39.0667 39.8435 36.7726 36.0568 33.7379 32.9071C33.5948 32.7724 33.4045 32.6992 33.2079 32.7034C33.0114 32.7076 32.8243 32.7888 32.687 32.9295C32.5497 33.0703 32.4732 33.2593 32.4739 33.4558C32.4746 33.6524 32.5524 33.8409 32.6907 33.9807C35.1015 36.4653 37.0132 39.3894 38.3223 42.5943L33.4655 39.8979C33.3105 39.8119 33.1301 39.7836 32.9563 39.8179C32.7824 39.8522 32.6263 39.947 32.5156 40.0854L30.605 42.4764C30.1108 39.9901 29.3293 37.5697 28.2762 35.2638C28.1895 35.0876 28.0372 34.9525 27.852 34.8874C27.6668 34.8223 27.4634 34.8325 27.2856 34.9158C27.1078 34.999 26.9697 35.1487 26.9011 35.3326C26.8324 35.5165 26.8387 35.72 26.9185 35.8994C28.1328 38.5854 28.969 41.4268 29.4032 44.3424C29.4214 44.4889 29.4823 44.6267 29.5784 44.7386C29.6745 44.8506 29.8015 44.9317 29.9435 44.9718C30.0854 45.0119 30.2361 45.0093 30.3766 44.9641C30.5171 44.919 30.6411 44.8334 30.7331 44.7181L33.2919 41.5164L39.3322 44.8712C39.4636 44.9589 39.6193 45.0029 39.7772 44.9968C39.9351 44.9908 40.087 44.935 40.2113 44.8375C40.3356 44.74 40.426 44.6057 40.4694 44.4538C40.5129 44.3019 40.5073 44.1401 40.4534 43.9916Z" fill="#414651"/>
<path d="M33.7539 18.724C33.7539 16.7959 33.1821 14.911 32.1109 13.3079C31.0397 11.7047 29.5172 10.4552 27.7358 9.7173C25.9545 8.97944 23.9943 8.78639 22.1032 9.16254C20.2122 9.5387 18.4751 10.4672 17.1117 11.8306C15.7483 13.194 14.8198 14.931 14.4437 16.8221C14.0675 18.7132 14.2606 20.6733 14.9984 22.4547C15.7363 24.236 16.9858 25.7586 18.589 26.8298C20.1922 27.901 22.077 28.4727 24.0051 28.4727C26.5897 28.4698 29.0676 27.4417 30.8952 25.6141C32.7228 23.7865 33.7509 21.3086 33.7539 18.724ZM30.0044 24.3681C29.2362 25.1902 28.3073 25.8456 27.2753 26.2936C26.2433 26.7417 25.1302 26.9729 24.0051 26.9729C22.88 26.9729 21.7669 26.7417 20.7349 26.2936C19.7029 25.8456 18.774 25.1902 18.0059 24.3681V23.8305C18.0057 23.3681 18.1511 22.9173 18.4215 22.5422C18.6919 22.167 19.0735 21.8865 19.5123 21.7404L22.7096 20.6749C23.5509 20.3966 24.4594 20.3966 25.3006 20.6749L28.498 21.7404C28.9367 21.8865 29.3184 22.167 29.5887 22.5422C29.8591 22.9173 30.0045 23.3681 30.0044 23.8305V24.3681ZM21.2399 16.1997C21.2399 15.6527 21.402 15.1181 21.7059 14.6634C22.0097 14.2086 22.4416 13.8542 22.9469 13.6449C23.4522 13.4356 24.0082 13.3808 24.5446 13.4875C25.081 13.5942 25.5737 13.8576 25.9604 14.2443C26.3472 14.6311 26.6105 15.1238 26.7172 15.6602C26.8239 16.1966 26.7692 16.7526 26.5599 17.2579C26.3506 17.7632 25.9961 18.195 25.5414 18.4989C25.0867 18.8027 24.552 18.9649 24.0051 18.9649C23.272 18.964 22.5691 18.6724 22.0507 18.154C21.5323 17.6356 21.2407 16.9328 21.2399 16.1997ZM28.9725 20.3183L26.6453 19.5427C27.3415 18.994 27.8494 18.242 28.0984 17.3913C28.3475 16.5406 28.3252 15.6334 28.0349 14.7959C27.7445 13.9583 27.2004 13.2321 26.4782 12.7181C25.756 12.2041 24.8915 11.928 24.0051 11.928C23.1187 11.928 22.2543 12.2041 21.5321 12.7181C20.8099 13.2321 20.2658 13.9583 19.9754 14.7959C19.685 15.6334 19.6628 16.5406 19.9118 17.3913C20.1608 18.242 20.6688 18.994 21.3649 19.5427L19.0377 20.3183C18.5044 20.4963 18.0187 20.7938 17.6179 21.188C17.217 21.5823 16.9114 22.0629 16.7245 22.5931C16.055 21.3362 15.7223 19.9274 15.7588 18.5038C15.7953 17.0801 16.1998 15.6902 16.9328 14.4693C17.6658 13.2483 18.7025 12.2379 19.9418 11.5364C21.1811 10.835 22.581 10.4663 24.0051 10.4663C25.4292 10.4663 26.829 10.8349 28.0684 11.5364C29.3077 12.2379 30.3443 13.2483 31.0774 14.4692C31.8104 15.6902 32.2148 17.0801 32.2514 18.5037C32.2879 19.9273 31.9552 21.3362 31.2857 22.5931C31.0988 22.0628 30.7933 21.5822 30.3924 21.188C29.9915 20.7938 29.5058 20.4963 28.9725 20.3183Z" fill="#414651"/>
</svg>
