<svg width="33" height="48" viewBox="0 0 33 48" fill="none" xmlns="http://www.w3.org/2000/svg">
<path d="M31.6507 38.8915C31.2623 38.8915 30.9475 39.2063 30.9475 39.5947V46.2053C30.9475 46.4194 30.7733 46.5936 30.5593 46.5936H26.7796V32.747C26.7796 32.3587 26.4648 32.0438 26.0765 32.0438C25.6882 32.0438 25.3733 32.3587 25.3733 32.747V46.5937H17.7623L19.9694 44.1655C20.2105 43.9002 20.3243 43.5223 20.2735 43.1543C20.2726 43.1471 20.2715 43.14 20.2703 43.1329L18.1681 30.7141L18.7344 29.8615C19.0476 30.0839 19.2888 30.298 19.7411 30.298C20.2013 30.298 20.6315 30.0405 20.8432 29.6166V29.6165L23.0603 25.1727L28.1112 27.1288C28.2939 27.2072 30.9473 28.4021 30.9473 31.5574V36.3133C30.9473 36.7015 31.2621 37.0164 31.6505 37.0164C32.0388 37.0164 32.3536 36.7016 32.3536 36.3133V31.5574C32.3536 27.4001 28.794 25.889 28.6425 25.8266C28.6381 25.8248 28.6336 25.823 28.6291 25.8213L20.2227 22.5657V20.5942C21.5579 19.5558 22.4837 18.0165 22.7161 16.2604C23.3818 16.2135 23.9995 15.9649 24.504 15.5311C25.1628 14.9646 25.5408 14.14 25.5408 13.2693C25.5408 12.5467 25.2801 11.8567 24.8154 11.319V8.71434C24.8153 3.90928 20.9062 0 16.1011 0C11.296 0 7.38684 3.90928 7.38684 8.71434V11.3872C6.91725 11.9195 6.66188 12.5746 6.66188 13.2692C6.66188 14.1402 7.03969 14.9647 7.69866 15.5313C8.20275 15.9649 8.82009 16.2132 9.48563 16.2602C9.71991 18.0492 10.6727 19.6459 12.1216 20.6982V22.5657L3.72431 25.8212C3.71991 25.8229 3.7155 25.8247 3.71109 25.8264C3.5595 25.8888 0 27.3999 0 31.5572V46.2052C0 47.1947 0.805031 47.9997 1.79456 47.9997H8.49366C8.88197 47.9997 9.19678 47.6849 9.19678 47.2966C9.19678 46.9083 8.88197 46.5935 8.49366 46.5935H6.98081V32.747C6.98081 32.3587 6.666 32.0438 6.27769 32.0438C5.88937 32.0438 5.57456 32.3587 5.57456 32.747V46.5937H1.79466C1.58062 46.5937 1.40644 46.4195 1.40644 46.2054V31.5573C1.40644 28.3914 4.07766 27.1992 4.24172 27.1291L9.28866 25.1725L11.506 29.6165C11.7182 30.0414 12.149 30.298 12.6082 30.298C13.0583 30.298 13.2971 30.0872 13.6148 29.8615L14.1812 30.7141L12.0792 43.133C12.078 43.14 12.077 43.147 12.0759 43.1542C12.0251 43.522 12.1388 43.9001 12.3801 44.1656L14.5872 46.5938H11.7752C11.3869 46.5938 11.0721 46.9086 11.0721 47.2969C11.0721 47.6852 11.3869 48 11.7752 48H30.5594C31.5489 48 32.354 47.1949 32.354 46.2054V39.5947C32.3538 39.2063 32.039 38.8915 31.6507 38.8915ZM21.7433 24.6627L19.6762 28.8055C19.6248 28.7691 18.5293 27.9907 17.1902 27.0398C17.7712 26.3226 17.0915 27.1616 19.7435 23.8883L21.7433 24.6627ZM17.5871 29.0468L17.0511 29.8538H15.2977L14.7616 29.0468L16.1744 28.0434L17.5871 29.0468ZM13.5277 22.7926V21.4767C14.382 21.8211 15.2949 21.9807 16.1865 21.9807C17.1083 21.9807 18.0124 21.7842 18.8164 21.4327V22.7983L16.1744 26.0594L13.5277 22.7926ZM24.1344 13.2693C24.1343 13.7299 23.9348 14.1657 23.587 14.4649C23.3571 14.6627 23.0793 14.7892 22.7751 14.8387V11.7002C23.5832 11.8314 24.1344 12.5017 24.1344 13.2693ZM9.4275 14.8387C8.61019 14.706 8.06813 14.0302 8.06813 13.2692C8.06813 12.5175 8.69128 11.9057 9.4275 11.7355V14.8387ZM9.46528 10.3028C9.24131 10.3284 8.98463 10.3891 8.79328 10.4542V8.71434C8.79328 4.68469 12.0715 1.40634 16.1012 1.40634C20.1308 1.40634 23.4091 4.68469 23.4091 8.71434V10.4059C23.2047 10.3437 22.9928 10.3027 22.7752 10.2833C22.7752 9.60488 22.7811 9.73575 20.5615 7.34953C20.1533 6.91097 19.4782 6.81909 18.9643 7.15481C16.5146 8.75503 13.5263 9.55894 10.7692 9.36094C10.1644 9.31566 9.6135 9.714 9.46528 10.3028ZM10.8338 15.3923V11.0055V10.7744C13.869 10.9522 17.0512 10.0505 19.6219 8.40413C20.6398 9.49706 21.1911 10.0703 21.3688 10.2884C21.3688 10.84 21.3688 14.7607 21.3688 15.3922C21.3688 18.2466 19.0414 20.5743 16.1866 20.5743C12.9809 20.5744 10.8338 18.0876 10.8338 15.3923ZM12.6727 28.8055L10.6057 24.6627L12.6019 23.8896L15.1557 27.0419C13.857 27.9641 12.7906 28.7218 12.6727 28.8055ZM13.4795 43.2846L15.5147 31.2599H16.8338L18.8691 43.2846L16.1743 46.2492L13.4795 43.2846Z" fill="#006BB6"/>
<path d="M31.6507 38.8915C31.2623 38.8915 30.9475 39.2063 30.9475 39.5947V46.2053C30.9475 46.4194 30.7733 46.5936 30.5593 46.5936H26.7796V32.747C26.7796 32.3587 26.4648 32.0438 26.0765 32.0438C25.6882 32.0438 25.3733 32.3587 25.3733 32.747V46.5937H17.7623L19.9694 44.1655C20.2105 43.9002 20.3243 43.5223 20.2735 43.1543C20.2726 43.1471 20.2715 43.14 20.2703 43.1329L18.1681 30.7141L18.7344 29.8615C19.0476 30.0839 19.2888 30.298 19.7411 30.298C20.2013 30.298 20.6315 30.0405 20.8432 29.6166V29.6165L23.0603 25.1727L28.1112 27.1288C28.2939 27.2072 30.9473 28.4021 30.9473 31.5574V36.3133C30.9473 36.7015 31.2621 37.0164 31.6505 37.0164C32.0388 37.0164 32.3536 36.7016 32.3536 36.3133V31.5574C32.3536 27.4001 28.794 25.889 28.6425 25.8266C28.6381 25.8248 28.6336 25.823 28.6291 25.8213L20.2227 22.5657V20.5942C21.5579 19.5558 22.4837 18.0165 22.7161 16.2604C23.3818 16.2135 23.9995 15.9649 24.504 15.5311C25.1628 14.9646 25.5408 14.14 25.5408 13.2693C25.5408 12.5467 25.2801 11.8567 24.8154 11.319V8.71434C24.8153 3.90928 20.9062 0 16.1011 0C11.296 0 7.38684 3.90928 7.38684 8.71434V11.3872C6.91725 11.9195 6.66188 12.5746 6.66188 13.2692C6.66188 14.1402 7.03969 14.9647 7.69866 15.5313C8.20275 15.9649 8.82009 16.2132 9.48563 16.2602C9.71991 18.0492 10.6727 19.6459 12.1216 20.6982V22.5657L3.72431 25.8212C3.71991 25.8229 3.7155 25.8247 3.71109 25.8264C3.5595 25.8888 0 27.3999 0 31.5572V46.2052C0 47.1947 0.805031 47.9997 1.79456 47.9997H8.49366C8.88197 47.9997 9.19678 47.6849 9.19678 47.2966C9.19678 46.9083 8.88197 46.5935 8.49366 46.5935H6.98081V32.747C6.98081 32.3587 6.666 32.0438 6.27769 32.0438C5.88937 32.0438 5.57456 32.3587 5.57456 32.747V46.5937H1.79466C1.58062 46.5937 1.40644 46.4195 1.40644 46.2054V31.5573C1.40644 28.3914 4.07766 27.1992 4.24172 27.1291L9.28866 25.1725L11.506 29.6165C11.7182 30.0414 12.149 30.298 12.6082 30.298C13.0583 30.298 13.2971 30.0872 13.6148 29.8615L14.1812 30.7141L12.0792 43.133C12.078 43.14 12.077 43.147 12.0759 43.1542C12.0251 43.522 12.1388 43.9001 12.3801 44.1656L14.5872 46.5938H11.7752C11.3869 46.5938 11.0721 46.9086 11.0721 47.2969C11.0721 47.6852 11.3869 48 11.7752 48H30.5594C31.5489 48 32.354 47.1949 32.354 46.2054V39.5947C32.3538 39.2063 32.039 38.8915 31.6507 38.8915ZM21.7433 24.6627L19.6762 28.8055C19.6248 28.7691 18.5293 27.9907 17.1902 27.0398C17.7712 26.3226 17.0915 27.1616 19.7435 23.8883L21.7433 24.6627ZM17.5871 29.0468L17.0511 29.8538H15.2977L14.7616 29.0468L16.1744 28.0434L17.5871 29.0468ZM13.5277 22.7926V21.4767C14.382 21.8211 15.2949 21.9807 16.1865 21.9807C17.1083 21.9807 18.0124 21.7842 18.8164 21.4327V22.7983L16.1744 26.0594L13.5277 22.7926ZM24.1344 13.2693C24.1343 13.7299 23.9348 14.1657 23.587 14.4649C23.3571 14.6627 23.0793 14.7892 22.7751 14.8387V11.7002C23.5832 11.8314 24.1344 12.5017 24.1344 13.2693ZM9.4275 14.8387C8.61019 14.706 8.06813 14.0302 8.06813 13.2692C8.06813 12.5175 8.69128 11.9057 9.4275 11.7355V14.8387ZM9.46528 10.3028C9.24131 10.3284 8.98463 10.3891 8.79328 10.4542V8.71434C8.79328 4.68469 12.0715 1.40634 16.1012 1.40634C20.1308 1.40634 23.4091 4.68469 23.4091 8.71434V10.4059C23.2047 10.3437 22.9928 10.3027 22.7752 10.2833C22.7752 9.60488 22.7811 9.73575 20.5615 7.34953C20.1533 6.91097 19.4782 6.81909 18.9643 7.15481C16.5146 8.75503 13.5263 9.55894 10.7692 9.36094C10.1644 9.31566 9.6135 9.714 9.46528 10.3028ZM10.8338 15.3923V11.0055V10.7744C13.869 10.9522 17.0512 10.0505 19.6219 8.40413C20.6398 9.49706 21.1911 10.0703 21.3688 10.2884C21.3688 10.84 21.3688 14.7607 21.3688 15.3922C21.3688 18.2466 19.0414 20.5743 16.1866 20.5743C12.9809 20.5744 10.8338 18.0876 10.8338 15.3923ZM12.6727 28.8055L10.6057 24.6627L12.6019 23.8896L15.1557 27.0419C13.857 27.9641 12.7906 28.7218 12.6727 28.8055ZM13.4795 43.2846L15.5147 31.2599H16.8338L18.8691 43.2846L16.1743 46.2492L13.4795 43.2846Z" fill="black" fill-opacity="0.15"/>
</svg>
