<svg width="25" height="24" viewBox="0 0 25 24" fill="none" xmlns="http://www.w3.org/2000/svg">
<path d="M0 0H11.4219C11.4219 3.80354 11.4219 7.60709 11.4219 11.4106H0V0Z" fill="#F25022"/>
<path d="M12.5881 0H24.0101C24.0101 3.80354 24.0101 7.60709 24.0101 11.4106C20.2028 11.4106 16.3954 11.4106 12.5881 11.4106C12.5881 7.60709 12.5881 3.80354 12.5881 0Z" fill="#80BA01"/>
<path d="M0 12.5757C3.80731 12.5757 7.61463 12.5757 11.4219 12.5757C11.4219 16.3792 11.4219 20.1828 11.4219 23.9863H0V12.5757Z" fill="#02A4EF"/>
<path d="M12.5881 12.5757C16.3954 12.5757 20.2028 12.5757 24.0101 12.5757V23.9863H12.5881C12.5881 20.1828 12.5881 16.3792 12.5881 12.5757Z" fill="#FFB902"/>
</svg>
